# xmcd CD database file
#
# Track frame offsets:
#	150
#	20492
#	38642
#	53217
#	68432
#	89845
#	105775
#	119312
#	137642
#	151757
#	169060
#	183082
#	200437
#	214390
#	242590
#
# Disc length: 3587 seconds
#
# Revision: 0
# Processed by: cddbd v1.5.1PL2 Copyright (c) Steve Scherf et al.
# Submitted via: CDex 1.51
#
DISCID=c00e010f
DTITLE=Trace Adkins - Greatest Hits Collection, Volume 1
DYEAR=2003
DGENRE=Country
TTITLE0=Then They Do
TTITLE1=(This Ain't) No Thinkin' Thing
TTITLE2=The Rest Of Mine
TTITLE3=Chrome
TTITLE4=I'm Tryin'
TTITLE5=There's A Girl In Texas
TTITLE6=Every Light In The House
TTITLE7=Don't Lie
TTITLE8=I Left Something Turned On At Home
TTITLE9=Big Time
TTITLE10=Lonely Won't Leave Me Alone
TTITLE11=Help Me Unterstand
TTITLE12=More
TTITLE13=Welcome To Hell
TTITLE14=Data
EXTD=YEAR: 2003
EXTT0=
EXTT1=
EXTT2=
EXTT3=
EXTT4=
EXTT5=
EXTT6=
EXTT7=
EXTT8=
EXTT9=
EXTT10=
EXTT11=
EXTT12=
EXTT13=
EXTT14=
PLAYORDER=
